<svg width="38" height="38" viewBox="0 0 38 38" fill="none" xmlns="http://www.w3.org/2000/svg">
<path d="M37.0548 15.0405L34.099 8.27911C33.1056 6.00631 31.2574 4.22392 28.953 3.32454L22.1051 0.642883C19.8007 -0.264686 17.2358 -0.207479 14.9803 0.790051L8.24648 3.75786C5.98287 4.75528 4.20786 6.61125 3.30404 8.92499L0.633265 15.8009C-0.262395 18.1147 -0.205424 20.6901 0.787978 22.9629L3.73556 29.7243C4.72897 31.989 6.58541 33.7795 8.88164 34.6789L15.7376 37.3605C18.0338 38.2598 20.5987 38.2108 22.8623 37.2134L29.5962 34.2455C31.8598 33.2481 33.6349 31.3922 34.5306 29.0784L37.2094 22.1944C38.105 19.8889 38.0482 17.3133 37.0548 15.0405ZM23.9779 24.41C22.8217 23.4534 21.9423 22.3988 20.7372 21.2296L22.1703 19.7907C22.4634 20.0769 22.7403 20.3548 22.9601 20.5756C23.701 21.2786 24.3525 22.0963 25.1912 22.6767C26.3718 23.5434 28.0818 23.4452 29.124 22.3988L29.1647 22.358C30.2313 21.295 30.3128 19.5455 29.4171 18.36C28.6925 17.3462 27.6746 16.5286 26.8441 15.6374C26.2415 15.0323 25.6553 14.4438 25.1179 13.9041C24.9469 13.7488 24.8817 13.7569 24.7596 13.8633C23.9373 14.7053 22.8055 15.8091 21.8121 16.8147L17.8548 20.8617L17.8059 20.9107C17.2522 21.4748 16.6823 22.0553 16.1449 22.595C15.4446 23.2408 14.7851 24.1157 13.9708 24.6635C11.5199 26.3804 7.83137 25.383 6.54486 22.6359C5.70617 20.9354 5.85273 18.8751 6.97638 17.3053C7.93727 16.0626 9.16671 15.0161 10.2579 13.8633C10.8849 13.2256 11.5932 12.5224 12.2202 11.8847C12.5541 11.5822 12.9205 11.0917 13.2706 10.9036C13.3927 10.8627 13.4904 10.9935 13.7102 11.2061C14.9561 12.4651 16.0959 13.6098 17.1952 14.7298L17.5209 15.0487L16.0633 16.4794C15.0862 15.4901 13.9626 14.3619 13.5391 13.9368C13.3764 13.7815 13.3437 13.7078 13.1809 13.855C13.0017 14.0185 12.4724 14.5581 12.163 14.8688C11.4953 15.531 10.7869 16.2423 10.1192 16.9209C9.59812 17.436 8.9223 18.0655 8.58026 18.7114C7.35071 20.5592 8.69431 23.2735 10.9416 23.3634C12.9121 23.4452 13.6857 22.0717 15.1513 20.69C15.705 20.1341 15.9736 19.8724 16.2504 19.5862L16.2749 19.5698C16.2831 19.5536 16.2993 19.5372 16.3156 19.5208L20.338 15.4411C22.0235 13.7487 24.3523 11.2877 24.9223 10.8626C24.9793 10.8708 25.0363 10.9116 25.0852 10.9526C25.4189 11.2796 26.1274 11.9909 26.4856 12.3669C27.2917 13.1764 29.5391 15.4411 30.7197 16.6266L30.7441 16.6511C34.8805 21.3113 29.0996 27.9827 23.9779 24.41Z" fill="#143134"/>
</svg>
