<svg width="186" height="38" viewBox="0 0 186 38" fill="none" xmlns="http://www.w3.org/2000/svg">
<g clip-path="url(#clip0_1_92)">
<path d="M37.0548 15.0405L34.099 8.27911C33.1056 6.00631 31.2574 4.22392 28.953 3.32454L22.1051 0.642883C19.8007 -0.264686 17.2358 -0.207479 14.9803 0.790051L8.24648 3.75786C5.98287 4.75528 4.20786 6.61125 3.30404 8.92499L0.633265 15.8009C-0.262395 18.1147 -0.205424 20.6901 0.787978 22.9629L3.73556 29.7243C4.72897 31.989 6.58541 33.7795 8.88164 34.6789L15.7376 37.3605C18.0338 38.2598 20.5987 38.2108 22.8623 37.2134L29.5962 34.2455C31.8598 33.2481 33.6349 31.3922 34.5306 29.0784L37.2094 22.1944C38.105 19.8889 38.0482 17.3133 37.0548 15.0405ZM23.9779 24.41C22.8217 23.4534 21.9423 22.3988 20.7372 21.2296L22.1703 19.7907C22.4634 20.0769 22.7403 20.3548 22.9601 20.5756C23.701 21.2786 24.3525 22.0963 25.1912 22.6767C26.3718 23.5434 28.0818 23.4452 29.124 22.3988L29.1647 22.358C30.2313 21.295 30.3128 19.5455 29.4171 18.36C28.6925 17.3462 27.6746 16.5286 26.8441 15.6374C26.2415 15.0323 25.6553 14.4438 25.1179 13.9041C24.9469 13.7488 24.8817 13.7569 24.7596 13.8633C23.9373 14.7053 22.8055 15.8091 21.8121 16.8147L17.8548 20.8617L17.8059 20.9107C17.2522 21.4748 16.6823 22.0553 16.1449 22.595C15.4446 23.2408 14.7851 24.1157 13.9708 24.6635C11.5199 26.3804 7.83137 25.383 6.54486 22.6359C5.70617 20.9354 5.85273 18.8751 6.97638 17.3053C7.93727 16.0626 9.16671 15.0161 10.2579 13.8633C10.8849 13.2256 11.5932 12.5224 12.2202 11.8847C12.5541 11.5822 12.9205 11.0917 13.2706 10.9036C13.3927 10.8627 13.4904 10.9935 13.7102 11.2061C14.9561 12.4651 16.0959 13.6098 17.1952 14.7298L17.5209 15.0487L16.0633 16.4794C15.0862 15.4901 13.9626 14.3619 13.5391 13.9368C13.3764 13.7815 13.3437 13.7078 13.1809 13.855C13.0017 14.0185 12.4724 14.5581 12.163 14.8688C11.4953 15.531 10.7869 16.2423 10.1192 16.9209C9.59812 17.436 8.9223 18.0655 8.58026 18.7114C7.35071 20.5592 8.69431 23.2735 10.9416 23.3634C12.9121 23.4452 13.6857 22.0717 15.1513 20.69C15.705 20.1341 15.9736 19.8724 16.2504 19.5862L16.2749 19.5698C16.2831 19.5536 16.2993 19.5372 16.3156 19.5208L20.338 15.4411C22.0235 13.7487 24.3523 11.2877 24.9223 10.8626C24.9793 10.8708 25.0363 10.9116 25.0852 10.9526C25.4189 11.2796 26.1274 11.9909 26.4856 12.3669C27.2917 13.1764 29.5391 15.4411 30.7197 16.6266L30.7441 16.6511C34.8805 21.3113 29.0996 27.9827 23.9779 24.41Z" fill="#143134"/>
<path d="M128.464 10.0492V9.49341H123.907L116.081 26.4125L107.869 9.49341H103.145V10.0492C104.483 10.3077 105.153 10.4499 105.153 11.7166V29.2432C105.153 30.5228 104.483 30.6262 103.145 30.9105V31.4792H107.933V30.9105C106.672 30.6262 106.028 30.5228 106.028 29.2432V11.3676L114.781 29.2819H115.695L123.946 11.4322V29.2431C123.946 30.5226 123.315 30.6261 121.976 30.9104V31.4791H128.463V30.9104C127.112 30.6261 126.443 30.5226 126.443 29.2431V11.7166C126.443 10.4499 127.112 10.3077 128.464 10.0492Z" fill="#143134"/>
<path d="M142.918 27.8989C141.747 29.5275 140.061 29.9928 138.439 29.9928C134.204 29.9928 131.733 26.9037 131.733 24.2928C131.733 23.5431 131.952 23.1941 132.647 23.1554L135.89 23.0132C141.399 22.8322 142.777 21.8112 142.777 19.6915C142.777 17.1711 140.794 15.1936 137.242 15.1936C132.763 15.1936 129.3 18.2697 129.3 23.3623C129.3 28.3644 132.827 31.6861 137.242 31.6861C140.872 31.6861 142.738 29.463 143.407 28.2867L142.918 27.8989ZM131.591 21.2037C131.591 18.6186 133.29 15.969 136.573 15.969C139.25 15.969 140.344 17.6622 140.344 19.7173C140.344 21.8111 139.25 22.3411 135.685 22.3798L132.763 22.4056C132.016 22.4444 131.591 22.4057 131.591 21.2037Z" fill="#143134"/>
<path d="M159.24 29.4242V9.17052C159.24 8.42082 158.776 8.0719 158.146 8.2528L154.722 9.09301V9.63582C156.871 9.41616 157.052 10.1658 157.052 11.678V15.3617C157.052 16.9645 155.43 15.1938 152.251 15.1938C148.093 15.1938 144.463 18.1924 144.463 23.5047C144.463 28.3646 147.385 31.6863 151.298 31.6863C154.374 31.6863 155.288 29.6053 156.382 29.6053C156.524 29.6053 156.846 29.6699 156.949 30.019C157.193 31.0918 157.824 31.6863 158.918 31.6863C159.806 31.6863 160.72 31.2598 161.106 30.8719V30.5488C160.089 30.6652 159.24 30.6909 159.24 29.4242ZM157.052 25.9215C157.052 29.1786 154.619 29.9929 152.791 29.9929C148.981 29.9929 146.548 26.8391 146.548 22.38C146.548 18.5153 148.337 15.9303 151.581 15.9303C154.014 15.9303 157.052 17.4167 157.052 21.2426V25.9215Z" fill="#143134"/>
<path d="M166.01 7.78735C165.199 7.78735 164.556 8.39491 164.556 9.23501C164.556 10.0881 165.199 10.6955 166.01 10.6955C166.821 10.6955 167.452 10.0881 167.452 9.23501C167.452 8.39491 166.821 7.78735 166.01 7.78735ZM167.413 29.2044V16.1758C167.413 15.4003 166.963 15.0772 166.319 15.2582L162.934 16.1112V16.6411C165.058 16.4213 165.225 17.171 165.225 18.735V29.2043C165.225 30.303 164.633 30.6907 162.908 30.8716V31.4791H169.704V30.8716C168.018 30.6907 167.413 30.3031 167.413 29.2044Z" fill="#143134"/>
<path d="M184.301 29.4241V20.7514C184.301 17.2098 182.859 15.1936 178.702 15.1936C175.664 15.1936 172.137 16.1758 172.137 18.8384C172.137 19.7561 172.562 20.2861 173.373 20.2861C176.23 20.2861 173.231 15.9302 177.814 15.9302C180.774 15.9302 182.113 17.7785 182.113 20.3248V21.1391C182.113 21.8113 181.765 21.9921 181.482 22.018C173.128 22.8711 171.12 25.1071 171.12 27.7956C171.12 30.5486 173.334 31.6861 175.664 31.6861C177.788 31.6861 180.182 30.8331 181.624 29.0623C181.804 28.8168 182.087 28.7521 182.048 29.0623C182.048 31.0915 183.181 31.6861 184.134 31.6861C184.97 31.6861 185.717 31.0916 186 30.5487V30.2385C185.228 30.5229 184.301 30.6908 184.301 29.4241ZM182.113 25.9861C182.113 28.5322 179.757 30.4194 177.08 30.4194C174.673 30.4194 173.553 28.9201 173.553 27.2657C173.553 25.4174 174.853 23.5433 180.71 22.8065C181.946 22.6256 182.113 23.2201 182.113 24.0344V25.9861Z" fill="#143134"/>
<path d="M61.2593 10.3922C60.6415 9.26767 59.6889 8.38881 58.4147 7.72962C57.1533 7.08341 55.5572 6.76025 53.6264 6.76025H44.9894V31.5378H48.7222V21.5595H53.6263C55.5956 21.5595 57.2174 21.2235 58.4917 20.5643C59.7533 19.9051 60.6928 19.0133 61.2978 17.8888C61.8899 16.7773 62.1859 15.5364 62.1859 14.1922C62.1859 12.7833 61.8772 11.5167 61.2593 10.3922ZM57.2433 17.333C56.4709 18.0955 55.2095 18.4833 53.4461 18.4833H48.7222V9.83636H53.4461C55.2095 9.83636 56.4709 10.2241 57.2433 10.9867C58.0027 11.7622 58.3889 12.8221 58.3889 14.1921C58.3889 15.5234 58.0027 16.5575 57.2433 17.333Z" fill="#143134"/>
<path d="M76.7182 15.4847C75.3795 14.2052 73.4873 13.5588 71.0417 13.5588C69.6774 13.5588 68.4288 13.8044 67.2832 14.2827C66.1505 14.7738 65.2108 15.4588 64.4643 16.3765C63.7307 17.2813 63.293 18.367 63.1772 19.6465H66.9099C67.0773 18.6513 67.5406 17.9017 68.3129 17.3975C69.0723 16.8935 69.9734 16.6349 71.0031 16.6349C72.1744 16.6349 73.1398 16.9839 73.8735 17.6689C74.6201 18.3539 74.9934 19.3751 74.9934 20.7452V21.0683H70.411C67.9654 21.0683 66.0861 21.5595 64.7604 22.5546C63.4475 23.537 62.7911 24.8812 62.7911 26.5873C62.7911 27.5567 63.0228 28.4485 63.499 29.2629C63.9623 30.0772 64.6832 30.7234 65.6485 31.2275C66.6139 31.7186 67.8367 31.9642 69.3171 31.9642C70.8359 31.9642 72.0716 31.641 73.0113 30.9818C73.9508 30.3096 74.6717 29.4954 75.1608 28.5389L75.4826 31.5376H78.7263V20.7452C78.7263 18.522 78.0568 16.7772 76.7182 15.4847ZM74.2339 26.2642C73.8478 27.0656 73.3072 27.7118 72.6121 28.2029C71.917 28.6812 71.0675 28.9267 70.0507 28.9267C69.0209 28.9267 68.1972 28.6941 67.6051 28.2288C67.0001 27.7764 66.7041 27.1431 66.7041 26.3417C66.7041 25.5532 67.013 24.907 67.6437 24.3901C68.2616 23.873 69.3171 23.6145 70.7973 23.6145H74.9549C74.8648 24.5838 74.6201 25.4628 74.2339 26.2642Z" fill="#143134"/>
<path d="M95.794 6.04932V16.6738C95.2019 15.6785 94.3909 14.9159 93.3355 14.3731C92.2928 13.8302 91.0829 13.5588 89.6927 13.5588C87.9937 13.5588 86.5006 13.9595 85.2005 14.7479C83.8876 15.5364 82.8707 16.6221 82.1499 18.005C81.4163 19.3881 81.0558 20.9519 81.0558 22.7227C81.0558 24.4935 81.4163 26.0833 82.1499 27.4663C82.8708 28.8622 83.8877 29.9609 85.1748 30.7622C86.4748 31.5636 87.9679 31.9642 89.6541 31.9642C91.2115 31.9642 92.473 31.6541 93.4642 31.0077C94.4553 30.3744 95.2276 29.6377 95.794 28.8105L96.1802 31.5377H99.5268V6.04932H95.794ZM94.2622 27.0528C93.2324 28.1514 91.9196 28.7072 90.3235 28.7072C89.268 28.7072 88.3283 28.4617 87.4917 27.9446C86.655 27.4406 85.9985 26.7426 85.5352 25.8378C85.059 24.9459 84.8273 23.9248 84.8273 22.7616C84.8273 20.9909 85.3421 19.5561 86.372 18.4575C87.4146 17.3588 88.7274 16.8159 90.3236 16.8159C91.9198 16.8159 93.2325 17.3588 94.2623 18.4575C95.2792 19.5561 95.794 20.9909 95.794 22.7616C95.794 24.5064 95.279 25.9412 94.2622 27.0528Z" fill="#143134"/>
</g>
<defs>
<clipPath id="clip0_1_92">
<rect width="186" height="38" fill="white"/>
</clipPath>
</defs>
</svg>
