<svg width="363" height="74" viewBox="0 0 363 74" fill="none" xmlns="http://www.w3.org/2000/svg">
<g clip-path="url(#clip0_1_78)">
<path d="M72.3166 29.2894L66.5481 16.1225C64.6094 11.6965 61.0023 8.22553 56.505 6.47411L43.1405 1.25193C38.6433 -0.515441 33.6376 -0.404037 29.2358 1.53852L16.0939 7.31793C11.6762 9.26027 8.21211 12.8745 6.44821 17.3802L1.23589 30.7702C-0.512093 35.2759 -0.400908 40.2912 1.53783 44.7172L7.29038 57.8841C9.22911 62.2944 12.8522 65.7811 17.3335 67.5325L30.7137 72.7547C35.195 74.5059 40.2007 74.4104 44.6184 72.4681L57.7603 66.6887C62.178 64.7463 65.6423 61.1321 67.3903 56.6264L72.6183 43.2207C74.3663 38.7309 74.2553 33.7154 72.3166 29.2894ZM46.7956 47.5353C44.539 45.6724 42.8229 43.6187 40.471 41.3419L43.2678 38.5398C43.8399 39.097 44.3803 39.6383 44.8092 40.0682C46.2552 41.4374 47.5266 43.0296 49.1634 44.16C51.4675 45.8476 54.8048 45.6565 56.8388 43.6187L56.9181 43.5392C58.9999 41.4693 59.1588 38.0623 57.4108 35.7536C55.9966 33.7794 54.0101 32.1872 52.3892 30.4517C51.2133 29.2735 50.0692 28.1273 49.0204 27.0764C48.6866 26.7739 48.5595 26.7898 48.3212 26.9969C46.7163 28.6367 44.5074 30.7861 42.5687 32.7444L34.8456 40.6254L34.7503 40.7209C33.6696 41.8194 32.5574 42.9498 31.5085 44.0007C30.1419 45.2585 28.8547 46.9621 27.2657 48.0289C22.4824 51.3723 15.2838 49.43 12.773 44.0805C11.1362 40.7689 11.4223 36.7567 13.6152 33.6999C15.4905 31.2798 17.8899 29.2418 20.0194 26.9969C21.243 25.7551 22.6254 24.3857 23.8491 23.1439C24.5007 22.5548 25.2158 21.5996 25.899 21.2332C26.1373 21.1537 26.328 21.4084 26.7571 21.8224C29.1885 24.2741 31.4131 26.5033 33.5585 28.6844L34.194 29.3054L31.3494 32.0915C29.4425 30.1649 27.2496 27.9679 26.4231 27.14C26.1055 26.8377 26.0418 26.6942 25.724 26.9808C25.3743 27.2992 24.3414 28.3499 23.7375 28.955C22.4344 30.2446 21.0518 31.6298 19.7488 32.9513C18.7318 33.9544 17.4129 35.1802 16.7453 36.438C14.3457 40.0363 16.9679 45.3221 21.3538 45.4972C25.1994 45.6565 26.7091 42.9817 29.5694 40.291C30.65 39.2084 31.1743 38.6988 31.7146 38.1416L31.7623 38.1097C31.7782 38.078 31.8098 38.0461 31.8417 38.0142L39.6919 30.0695C42.9814 26.7737 47.5262 21.9814 48.6387 21.1535C48.7499 21.1695 48.8612 21.249 48.9565 21.3287C49.6079 21.9654 50.9905 23.3508 51.6897 24.083C53.2628 25.6592 57.6489 30.0695 59.953 32.3781L60.0005 32.4257C68.0733 41.5009 56.7912 54.4927 46.7956 47.5353Z" fill="#F7F1ED"/>
<path d="M250.711 19.5697V18.4874H241.818L226.545 51.4351L210.518 18.4874H201.299V19.5697C203.911 20.0732 205.218 20.35 205.218 22.8168V56.9475C205.218 59.4392 203.911 59.6408 201.299 60.1944V61.3018H210.644V60.1944C208.182 59.6408 206.926 59.4392 206.926 56.9475V22.1371L224.008 57.0228H225.791L241.894 22.263V56.9473C241.894 59.439 240.663 59.6406 238.05 60.1942V61.3016H250.711V60.1942C248.073 59.6406 246.767 59.439 246.767 56.9473V22.8168C246.767 20.35 248.074 20.0732 250.711 19.5697Z" fill="#F7F1ED"/>
<path d="M278.921 54.3295C276.635 57.5009 273.345 58.407 270.179 58.407C261.915 58.407 257.092 52.3914 257.092 47.307C257.092 45.8471 257.519 45.1676 258.875 45.0921L265.205 44.8153C275.957 44.4628 278.645 42.4745 278.645 38.3466C278.645 33.4385 274.776 29.5876 267.843 29.5876C259.101 29.5876 252.344 35.5779 252.344 45.495C252.344 55.2361 259.227 61.7045 267.843 61.7045C274.927 61.7045 278.57 57.3753 279.876 55.0847L278.921 54.3295ZM256.815 41.2914C256.815 36.2574 260.131 31.0975 266.537 31.0975C271.762 31.0975 273.898 34.3948 273.898 38.3968C273.898 42.4743 271.762 43.5063 264.804 43.5818L259.101 43.632C257.644 43.7076 256.815 43.6322 256.815 41.2914Z" fill="#F7F1ED"/>
<path d="M310.774 57.2996V17.8583C310.774 16.3983 309.87 15.7188 308.639 16.0711L301.957 17.7073V18.7644C306.152 18.3366 306.504 19.7963 306.504 22.7413V29.9148C306.504 33.036 303.339 29.5878 297.134 29.5878C289.02 29.5878 281.936 35.4272 281.936 45.7722C281.936 55.2363 287.639 61.7047 295.275 61.7047C301.279 61.7047 303.063 57.6523 305.198 57.6523C305.474 57.6523 306.102 57.7782 306.303 58.4578C306.78 60.5471 308.011 61.7047 310.147 61.7047C311.88 61.7047 313.663 60.8743 314.417 60.1189V59.4896C312.433 59.7162 310.774 59.7664 310.774 57.2996ZM306.504 50.4786C306.504 56.8214 301.756 58.407 298.189 58.407C290.753 58.407 286.006 52.2656 286.006 43.582C286.006 36.056 289.497 31.022 295.828 31.022C300.575 31.022 306.504 33.9166 306.504 41.3671V50.4786Z" fill="#F7F1ED"/>
<path d="M323.988 15.165C322.405 15.165 321.149 16.3481 321.149 17.9841C321.149 19.6454 322.405 20.8283 323.988 20.8283C325.571 20.8283 326.801 19.6454 326.801 17.9841C326.801 16.3481 325.571 15.165 323.988 15.165ZM326.726 56.8718V31.5004C326.726 29.9902 325.847 29.3609 324.591 29.7134L317.984 31.3745V32.4065C322.129 31.9785 322.455 33.4385 322.455 36.484V56.8716C322.455 59.0112 321.3 59.7662 317.934 60.1185V61.3016H331.197V60.1185C327.906 59.7662 326.726 59.0115 326.726 56.8718Z" fill="#F7F1ED"/>
<path d="M359.684 57.2996V40.4106C359.684 33.5139 356.87 29.5876 348.757 29.5876C342.828 29.5876 335.945 31.5004 335.945 36.6854C335.945 38.4725 336.774 39.5045 338.357 39.5045C343.934 39.5045 338.081 31.022 347.024 31.022C352.801 31.022 355.414 34.6214 355.414 39.5799V41.1658C355.414 42.4748 354.736 42.8268 354.183 42.8772C337.88 44.5385 333.961 48.8928 333.961 54.1284C333.961 59.4894 338.281 61.7045 342.828 61.7045C346.973 61.7045 351.646 60.0434 354.459 56.595C354.811 56.1169 355.364 55.991 355.288 56.595C355.288 60.5467 357.499 61.7045 359.358 61.7045C360.991 61.7045 362.447 60.5469 363 59.4896V58.8856C361.493 59.4394 359.684 59.7664 359.684 57.2996ZM355.414 50.6045C355.414 55.5628 350.817 59.2379 345.591 59.2379C340.894 59.2379 338.708 56.3182 338.708 53.0964C338.708 49.497 341.246 45.8475 352.675 44.4126C355.087 44.0603 355.414 45.2182 355.414 46.8038V50.6045Z" fill="#F7F1ED"/>
<path d="M119.554 20.2373C118.349 18.0475 116.49 16.336 114.003 15.0523C111.541 13.7939 108.426 13.1646 104.658 13.1646H87.802V61.4156H95.0869V41.9843H104.658C108.501 41.9843 111.666 41.3299 114.153 40.0462C116.615 38.7625 118.449 37.0257 119.63 34.8359C120.785 32.6714 121.363 30.2549 121.363 27.6374C121.363 24.8937 120.76 22.4271 119.554 20.2373ZM111.717 33.7535C110.209 35.2386 107.748 35.9937 104.306 35.9937H95.0869V19.1549H104.306C107.748 19.1549 110.209 19.9101 111.717 21.3951C113.199 22.9052 113.952 24.9692 113.952 27.6372C113.952 30.2296 113.199 32.2434 111.717 33.7535Z" fill="#F7F1ED"/>
<path d="M149.724 30.1544C147.111 27.6627 143.419 26.4041 138.646 26.4041C135.983 26.4041 133.546 26.8822 131.311 27.8136C129.1 28.7701 127.266 30.104 125.809 31.8911C124.378 33.653 123.524 35.7673 123.297 38.259H130.582C130.909 36.321 131.813 34.8612 133.32 33.8794C134.802 32.8978 136.561 32.3944 138.571 32.3944C140.856 32.3944 142.74 33.0739 144.173 34.4079C145.63 35.7418 146.358 37.7305 146.358 40.3985V41.0278H137.415C132.642 41.0278 128.975 41.9843 126.387 43.9222C123.825 45.8352 122.544 48.4529 122.544 51.7753C122.544 53.663 122.996 55.3998 123.925 56.9856C124.83 58.5714 126.237 59.8298 128.121 60.8114C130.004 61.7679 132.391 62.246 135.28 62.246C138.244 62.246 140.656 61.6167 142.49 60.333C144.323 59.024 145.73 57.4384 146.685 55.5758L147.313 61.4154H153.643V40.3985C153.643 36.0692 152.337 32.6714 149.724 30.1544ZM144.876 51.146C144.122 52.7067 143.067 53.9651 141.711 54.9214C140.354 55.8528 138.696 56.331 136.712 56.331C134.702 56.331 133.095 55.8779 131.939 54.9718C130.758 54.091 130.181 52.8577 130.181 51.2969C130.181 49.7615 130.783 48.5031 132.014 47.4964C133.22 46.4896 135.28 45.9861 138.169 45.9861H146.283C146.107 47.8738 145.63 49.5855 144.876 51.146Z" fill="#F7F1ED"/>
<path d="M186.953 11.7801V32.4699C185.797 30.5318 184.215 29.0467 182.155 27.9897C180.12 26.9324 177.759 26.4039 175.045 26.4039C171.73 26.4039 168.816 27.1841 166.278 28.7195C163.716 30.255 161.731 32.3693 160.325 35.0623C158.893 37.7556 158.19 40.8009 158.19 44.2494C158.19 47.6978 158.893 50.7937 160.325 53.487C161.732 56.2053 163.716 58.3447 166.228 59.9053C168.765 61.4658 171.679 62.246 174.97 62.246C178.01 62.246 180.471 61.642 182.406 60.3834C184.34 59.1501 185.847 57.7154 186.953 56.1045L187.707 61.4154H194.238V11.7801H186.953ZM183.963 52.6816C181.954 54.8211 179.391 55.9034 176.277 55.9034C174.217 55.9034 172.383 55.4253 170.75 54.4184C169.117 53.4368 167.836 52.0776 166.932 50.3156C166.002 48.5788 165.55 46.5903 165.55 44.325C165.55 40.8768 166.555 38.0828 168.565 35.9434C170.6 33.8039 173.162 32.7467 176.277 32.7467C179.392 32.7467 181.954 33.8039 183.964 35.9434C185.948 38.0828 186.953 40.8768 186.953 44.325C186.953 47.7229 185.948 50.5169 183.963 52.6816Z" fill="#F7F1ED"/>
</g>
<defs>
<clipPath id="clip0_1_78">
<rect width="363" height="74" fill="white"/>
</clipPath>
</defs>
</svg>
